<?xml version="1.0" encoding="utf-8"?>
<!-- Generator: Adobe Illustrator 24.3.0, SVG Export Plug-In . SVG Version: 6.00 Build 0)  -->
<svg version="1.1" id="hvv" xmlns="http://www.w3.org/2000/svg" xmlns:xlink="http://www.w3.org/1999/xlink" x="0px" y="0px"
	 viewBox="0 0 283.5 143" style="enable-background:new 0 0 283.5 143;" xml:space="preserve">
<style type="text/css">
	.st0{fill:#FA1E41;}
	.st1{fill:#FFFFFF;}
	.st2{fill:#00FF00;}
</style>
<rect y="0" class="st0" width="283.5" height="143"/>
<path class="st1" d="M228.4,105.4h-12.6l-24.4-48.9h14.7l16.3,34.3l16.8-34.3H254L228.4,105.4z M163.6,105.4H151l-24.3-48.9h14.7
	l16.3,34.3l16.8-34.3h14.8L163.6,105.4z M84.3,83.6v21.8H71.5V40.6h12.8v25.8c1.7-3.6,4.1-6.4,7.4-8.6s7.3-3.2,12.1-3.2
	c2.3,0,4.5,0.2,6.5,0.7s3.8,1.2,5.4,2.3c3.3,1.9,5.8,4.7,7.5,8.3s2.6,7.8,2.6,12.7v26.8h-13.3V82.9c0-1.7-0.1-3.2-0.3-4.7
	c-0.2-1.4-0.5-2.8-0.9-4.1c-0.8-2.5-2.2-4.4-4.1-5.8s-4.5-2.1-7.8-2.1c-5.2,0-8.9,1.4-11.4,4.3C85.5,73.5,84.3,77.9,84.3,83.6"/>
<polygon class="st2" points="29.4,37.6 29.4,49.2 45.7,56.5 29.4,63.5 29.4,75.1 58.7,60.5 58.7,53 "/>
</svg>
